/* XPM */
static char *noatun-16[] = {
/* columns rows colors chars-per-pixel */
"16 16 203 2",
"   c black",
".  c #081C3E",
"X  c #1E1F24",
"o  c #002300",
"O  c #002500",
"+  c #263B25",
"@  c #1B6616",
"#  c #1E6617",
"$  c #234D20",
"%  c #2F4029",
"&  c #294E27",
"*  c #265029",
"=  c #27502B",
"-  c #295328",
";  c #305029",
":  c #20781A",
">  c #267920",
",  c #3A753B",
"<  c #39755B",
"1  c #4F4B56",
"2  c #4F4B57",
"3  c #425F5F",
"4  c #4B5C52",
"5  c #4F7355",
"6  c #517457",
"7  c #6D686E",
"8  c #6C6F6B",
"9  c #677172",
"0  c #6C7477",
"q  c #6E7E79",
"w  c #706971",
"e  c gray45",
"r  c #1D3782",
"t  c #326096",
"y  c #425FAC",
"u  c #4D7392",
"i  c #586087",
"p  c #5E6486",
"a  c #4868B2",
"s  c #6E7595",
"d  c #4779DC",
"f  c #5772C0",
"g  c #4D7AE7",
"h  c #059A00",
"j  c #0CA600",
"k  c #09A800",
"l  c #1FAE13",
"z  c #27842D",
"x  c #2D9A25",
"c  c #3B9835",
"v  c #2EA024",
"b  c #34AE2A",
"n  c #3DB134",
"m  c #268A68",
"M  c #3FC033",
"N  c #51BE3E",
"B  c #45877B",
"V  c #49A442",
"C  c #58AB53",
"Z  c #5DAA57",
"A  c #5FAD5B",
"S  c #57BC4F",
"D  c #58B456",
"F  c #5EBB57",
"G  c #5EBC58",
"H  c #63985D",
"J  c #649B68",
"K  c #69906F",
"L  c #6A9D6E",
"P  c #6C9074",
"I  c #61A75F",
"U  c #65A762",
"Y  c #6BAA68",
"T  c #67B969",
"R  c #6EBE6B",
"E  c #6DBC6E",
"W  c #6CB379",
"Q  c #78AB74",
"!  c #7AAC78",
"~  c #7BB777",
"^  c #59C94E",
"/  c #6EC666",
"(  c #6FC368",
")  c #6ACD60",
"_  c #6DCB63",
"`  c #6FD165",
"'  c #7CCD75",
"]  c #77D96E",
"[  c #7DD374",
"{  c #7FDA74",
"}  c #5784DF",
"|  c #6483D9",
" . c #778BD1",
".. c #7A92D2",
"X. c #628CE2",
"o. c #668EE1",
"O. c #658EEC",
"+. c #6C92E2",
"@. c #6F91E6",
"#. c #6A9AEE",
"$. c #6A93F0",
"%. c #7498E5",
"&. c #779FEC",
"*. c #7B9DE5",
"=. c #6DA0ED",
"-. c #6EA1EF",
";. c #76A4EE",
":. c #76A5EE",
">. c #7DA0E6",
",. c #7AAAEF",
"<. c #7EA8EF",
"1. c #7EABEF",
"2. c #75A5F0",
"3. c #7CAAF0",
"4. c #7EACF0",
"5. c #80CD7A",
"6. c #87CA7C",
"7. c #80D278",
"8. c #94979C",
"9. c #9696A5",
"0. c #9993A9",
"q. c #82BF84",
"w. c #ADADB6",
"e. c #A0BCAC",
"r. c #B6ACBF",
"t. c #8299D7",
"y. c #80ADEF",
"u. c #81ADEF",
"i. c #81ADF1",
"p. c #80AEF1",
"a. c #8DAFF1",
"s. c #88B2F1",
"d. c #88B3F0",
"f. c #89B3F0",
"g. c #89B3F1",
"h. c #90ACE9",
"j. c #91AFEA",
"k. c #90B3F0",
"l. c #91B6F1",
"z. c #92B8F1",
"x. c #93B9F1",
"c. c #92B9F2",
"v. c #93B9F3",
"b. c #94B9F1",
"n. c #94B9F2",
"m. c #94B9F3",
"M. c #94BAF2",
"N. c #9BB0F2",
"B. c #9DB6F5",
"V. c #AFB2D4",
"C. c #BCBDD3",
"Z. c #BDBED3",
"A. c #BCBDD4",
"S. c #BDBED4",
"D. c #BFBFD4",
"F. c #BBB8DB",
"G. c #85C881",
"H. c #8CCC87",
"J. c #8DD885",
"K. c #91CE8E",
"L. c #91DD88",
"P. c #96D292",
"I. c #9FD69B",
"U. c #9ADA92",
"Y. c #9BDC94",
"T. c #9DDE95",
"R. c #9DDB98",
"E. c #97E28F",
"W. c #A1DA9C",
"Q. c #A2E49B",
"!. c #A5EA9E",
"~. c #AAE9A2",
"^. c #B4E6AA",
"/. c #B6E9AF",
"(. c #B6EFAE",
"). c #B6EAB1",
"_. c #B8EDB3",
"`. c #BAEFB4",
"'. c #A4C1F2",
"]. c #A4C3F4",
"[. c #A5C4F3",
"{. c #A6C5F3",
"}. c #A6C5F4",
"|. c #A6C5F5",
" X c #A7C6F4",
".X c #ABC2F2",
"XX c #B9D0F6",
"oX c #B9D2F6",
"OX c #C3C3DD",
"+X c #C7C0DF",
"@X c #CAC1DE",
"#X c #CAC5DD",
"$X c #CCC3DB",
"%X c #C9C8DA",
"&X c #CBC9DD",
"*X c #C7E5C7",
"=X c #C5EFC0",
"-X c #C6EFC1",
";X c #CAE5C9",
":X c #CBF1C6",
">X c #D0F3C9",
",X c #D1E0FC",
"<X c None",
/* pixels */
"<X<X<X<X;XK.H.I.P.~ ! <X<X<X<X<X",
"<X<X<XE W.>X^.U.R.=X:XA 5 <X<X<X",
"<X<XD =X6.B u s 8.K I ).Y.= <X<X",
"<XT /.Z 9 N.,X.Xt.V.$XL T.5.4 <X",
";X' ( 0 OXh.oXoXoXh...F.Y { @ <X",
"G.L., #XA.>. X|.|.|.'.*. .h k e ",
"F ) q &XC.+.M.m.M.l.M.M.k.@.m ; ",
"b j 0.%XC.X.f.f.g.g.f.f.4.;.$.r ",
"n l 9.%XOXd 2.4.1.,.;.#.;.#.g . ",
"V M P &XC.} p.p.p.p.u.u.O.t z + ",
"Q ^ c $XC.| B.v.l.l.&.y 3 N v w ",
"<Xx ` J OX&. X Xg.a p w.S { O <X",
"<X6 _ [ U | B.a i r.e.G E.: 2 <X",
"<X<X= / ~.W < H q.E J.!.: X <X<X",
"<X<X<X4 # 7.(.`._.Q.C O 2 <X<X<X",
"<X<X<X<X<X8 & - $ + w <X<X<X<X<X"
};
