/* XPM */
static char * BBOXenabled_xpm[] = {
"16 16 33 1",
" 	c None",
".	c #113411",
"+	c #2B842B",
"@	c #297C29",
"#	c #194C19",
"$	c #38AB38",
"%	c #6ACD6A",
"&	c #70CF70",
"*	c #36A536",
"=	c #58C758",
"-	c #7DD47D",
";	c #79D279",
">	c #5BC85B",
",	c #246F24",
"'	c #65CC65",
")	c #82D582",
"!	c #35A035",
"~	c #226922",
"{	c #3DBA3D",
"]	c #41C041",
"^	c #4FC44F",
"/	c #206320",
"(	c #44C144",
"_	c #277827",
":	c #3AB13A",
"<	c #2F8E2F",
"[	c #74D174",
"}	c #246D24",
"|	c #319631",
"1	c #1D581D",
"2	c #174817",
"3	c #133A13",
"4	c #1B541B",
"      .+@.      ",
"     #$%&*#     ",
"   .@=&-;;>,.   ",
"  #$''%;);;&!#  ",
" ~{]%);););;^]/ ",
" ,]^&);%&;%='(_ ",
" ~@:;;%>=(>;{$, ",
" ~@/<';&%[%*<$_ ",
" /_}/}:&&]<||*, ",
" /@}}}~:{<|||$, ",
" /@}}}}$:*!!*:} ",
" .1,__+]({{]:,. ",
"  .2_|!^>(=:1.  ",
"    3_:&;'<3    ",
"     .1%%~.     ",
"      .4#.      "};
