/* XPM */
static char * BBOXdisabled_xpm[] = {
"16 16 34 1",
" 	c None",
".	c #000000",
"+	c #343434",
"@	c #303030",
"#	c #121212",
"$	c #4D4D4D",
"%	c #767676",
"&	c #7A7A7A",
"*	c #4B4B4B",
"=	c #696969",
"-	c #878787",
";	c #808080",
">	c #6D6D6D",
",	c #282828",
"'	c #727272",
")	c #8A8A8A",
"!	c #474747",
"~	c #222222",
"{	c #565656",
"]	c #5D5D5D",
"^	c #646464",
"/	c #1F1F1F",
"(	c #5F5F5F",
"_	c #2E2E2E",
":	c #505050",
"<	c #3C3C3C",
"[	c #7D7D7D",
"}	c #272727",
"|	c #5B5B5B",
"1	c #414141",
"2	c #191919",
"3	c #0E0E0E",
"4	c #060606",
"5	c #151515",
"      .+@.      ",
"     #$%&*#     ",
"   .@=&-;;>,.   ",
"  #$''%;);;&!#  ",
" ~{]%);););;^]/ ",
" ,]^&);%&;%='(_ ",
" ~@:;;%>=(>;{$, ",
" ~@/<';&%[%*<$_ ",
" /_}/}:&&|<11*, ",
" /@}}}~:{<111$, ",
" /@}}}}$:*!!*:} ",
" .2,__+]({{|:,. ",
"  .3_1!^>(=:2.  ",
"    4_:&;'<4    ",
"     .2%%~.     ",
"      .5#.      "};
