/* XPM */
static char *kblackbox-16[] = {
/* columns rows colors chars-per-pixel */
"16 16 98 2",
"   c black",
".  c #060606",
"X  c #0E0E0E",
"o  c #101010",
"O  c #111111",
"+  c gray7",
"@  c #151515",
"#  c #181818",
"$  c #191919",
"%  c gray11",
"&  c #1D1D1D",
"*  c gray12",
"=  c #202020",
"-  c gray13",
";  c #222222",
":  c #232323",
">  c #252525",
",  c gray15",
"<  c #272727",
"1  c #282828",
"2  c #2A2A2A",
"3  c gray17",
"4  c #2C2C2C",
"5  c gray18",
"6  c gray19",
"7  c #313131",
"8  c #323232",
"9  c gray20",
"0  c #343434",
"q  c #3C3C3C",
"w  c gray24",
"e  c #3E3E3E",
"r  c #3F3F3F",
"t  c gray25",
"y  c #414141",
"u  c gray26",
"i  c #434343",
"p  c #444444",
"a  c gray28",
"s  c #484848",
"d  c #494949",
"f  c #4B4B4B",
"g  c #4C4C4C",
"h  c gray30",
"j  c #4E4E4E",
"k  c gray31",
"l  c #505050",
"z  c gray32",
"x  c gray33",
"c  c #555555",
"v  c #565656",
"b  c gray35",
"n  c #5B5B5B",
"m  c gray36",
"M  c #5D5D5D",
"N  c #5F5F5F",
"B  c #606060",
"V  c gray38",
"C  c #646464",
"Z  c #676767",
"A  c #686868",
"S  c DimGray",
"D  c gray42",
"F  c #6D6D6D",
"G  c gray43",
"H  c #6F6F6F",
"J  c gray44",
"K  c #727272",
"L  c gray45",
"P  c gray46",
"I  c #767676",
"U  c #777777",
"Y  c gray47",
"T  c #797979",
"R  c gray48",
"E  c #7B7B7B",
"W  c gray49",
"Q  c #7E7E7E",
"!  c #808080",
"~  c #818181",
"^  c gray51",
"/  c gray53",
"(  c #898989",
")  c gray54",
"_  c #909090",
"`  c #929292",
"'  c #B6B6B6",
"]  c gray75",
"[  c gray76",
"{  c #C5C5C5",
"}  c #CACACA",
"|  c gray88",
" . c #E1E1E1",
".. c #E4E4E4",
"X. c gray90",
"o. c #ECECEC",
"O. c gray97",
"+. c None",
/* pixels */
"+.+.+.+.+.+.  0 6   +.+.+.+.+.+.",
"+.+.+.+.+.+ h I R f + +.+.+.+.+.",
"+.+.+.  6 S R / } ' F 1   +.+.+.",
"+.+.+ h K K I ! ) X. .R a + +.+.",
"+.; v M I ) [ ..{ O.O.! C M * +.",
"+.1 M C R  .] ) ) ) I S K N 5 +.",
"+.; 6 l ! ! I F S N F ! v h 1 +.",
"+.; 6 * q K ! R I W I f q h 5 +.",
"+.* 5 < * < l R R n q y y f 1 +.",
"+.* 6 < < < ; l v q y y y h 1 +.",
"+.* 6 < < < < h l f a a f l < +.",
"+.  $ 1 5 5 0 M N v v n l 1   +.",
"+.+.  X 5 y a C F N S l $   +.+.",
"+.+.+.+.. 5 l R ! K q . +.+.+.+.",
"+.+.+.+.+.  $ I I ;   +.+.+.+.+.",
"+.+.+.+.+.+.  @ +   +.+.+.+.+.+."
};
