/* XPM */
static char *clrobot[]={
"16 16 95 2",
"Qt c None",
".O c #0058c0",
".R c #080808",
".C c #0d0d0d",
".P c #191919",
"#e c #3b3b3b",
".K c #414141",
"#B c #4469e0",
".J c #484848",
"#A c #496ee1",
".Z c #4c4c4c",
"#z c #4e73e2",
".X c #505050",
"#t c #5177e4",
".M c #525252",
".L c #565656",
"#o c #567de6",
".T c #5a5a5a",
"#k c #5c83e8",
"#x c #5d5d5d",
".r c #6079d6",
"#f c #6189eb",
".9 c #636363",
".I c #686868",
"#c c #6890ed",
".x c #697cb9",
".y c #6b78ac",
".8 c #6e6e6e",
".g c #7297ed",
".w c #788cbe",
"#w c #7993e8",
"#b c #7a7a7a",
".1 c #7ba6f5",
".U c #81abf6",
"#i c #848484",
".v c #859cca",
".H c #868686",
".o c #869ad5",
"#. c #86a9f2",
"#a c #898989",
"#n c #8b8b8b",
".B c #8b98bd",
".u c #8baee2",
".t c #8da7ee",
".N c #91b9f9",
".Q c #929292",
".j c #93a8da",
".0 c #969696",
".b c #9bacc8",
".l c #9bb5f2",
".W c #a0a0a0",
".7 c #a2a2a2",
".D c #a3bde2",
".a c #a4bff6",
".A c #a7a7a7",
"#v c #a7b9f1",
".2 c #a7c3f7",
".q c #a8bdf3",
"#u c #abbef2",
".6 c #aeaeae",
"#m c #b0b5b9",
"#s c #b1b1b1",
".f c #b2c9f7",
"#y c #b58080",
".e c #b6ccf8",
"#C c #b9b9b9",
"#r c #b9c8d8",
"#p c #bbcbf5",
".d c #bbd1f9",
".c c #bed5fb",
".S c #c4c4c4",
"## c #c8d3e3",
".s c #cacaca",
"#g c #cad7f8",
".G c #cccccc",
".z c #d0d0d0",
"#q c #d1e4fe",
".V c #d3e2fc",
"#l c #d6e8fe",
".k c #d7d6d6",
".Y c #d7d7d7",
"#h c #dbe7f7",
".4 c #dddddd",
".n c #e1eefe",
".p c #e3e3e3",
"#d c #e4edfc",
".m c #e7f2fe",
"#j c #ebebeb",
".i c #edf6fe",
".E c #f2f2f2",
".3 c #f5f9fe",
".h c #f9fcfe",
".F c #fbfbfb",
".5 c #feebeb",
".# c #fefefe",
"QtQtQt.#.a.b.c.d.e.f.gQtQtQtQtQt",
"QtQt.h.i.j.k.#.#.#.#.lQtQtQtQtQt",
"Qt.#.m.n.o.p.#.#.#.#.qQtQtQtQtQt",
".#.h.m.i.r.s.#.#.#.#.tQtQtQtQtQt",
".u.v.w.x.y.s.p.z.A.z.B.CQtQtQtQt",
".D.p.p.E.F.G.H.I.J.K.J.L.MQtQtQt",
".N.#.#.#.z.O.O.P.Q.R.S.T.T.O.OQt",
".U.V.#.E.W.X.O.O.Y.#.#.Z.0.O.OQt",
".1.2.3.4.Q.J.Z.#.O.5.6.7.O.8.9Qt",
"Qt#..3##.9.Q.#.#.O.O#a.O.O.A#bQt",
"Qt#c#d###b.R.#.0.8.O.O.O.Y#e#aQt",
"Qt#f#g#h#i.0.S.#.#.O.O.##j.Y.QQt",
"Qt#k.q#l#m.T#n.O.O.#.O.#.T.7#aQt",
"Qt#o#p#q#r.A.S.O.O#s.O.O.Y.S.JQt",
"Qt#t#u#v#w.O.O#n.Y#x.4#y.O.OQtQt",
"Qt#z#A#BQtQt.Z.A.A.Y#C.6.ZQtQtQt"};
