/* XPM */
static char * kautham_xpm[] = {
"32 32 8 1",
" 	c None",
".	c #000000",
"+	c #0000FF",
"@	c #008000",
"#	c #FF0000",
"$	c #00FF00",
"%	c #FFFF00",
"&	c #808000",
"            ..++++..            ",
"         ...++++++++..          ",
"        ....++++++++++..        ",
"      ..@@@@..++++++..@@...     ",
" ########@@@@@.+++..@@@$$$$$$$  ",
"  ..##@@@@@@@@@...@@@@@$$@@@@$$ ",
"..@@##@@@@@@@@@.#.@@@@@$$@@@..$$",
"...@##@@@@@@@..###..@@@$$@..@@$$",
".@@.##@@@@@..###..@@..@$$.@@@@$$",
".@@@##.@@..@@...@@@@@@.$$@@@@$$ ",
".@@@##@..@@@@@..@@@@@..$$$$$$$. ",
".@@@##@...@@..$$..@..@.$$@@@@@. ",
".@@@##@.  ..$$$$$..@@@.$$@@@@@. ",
".@@@##@.   ...$..$.@@@.$$@@@@@. ",
".@@@##@.   .$$.$$$.@@..$$@@@... ",
"...@@@@... .$$.$$$...@.@@@..%%. ",
".%%.@@@.##..$$.$$..@@@.@@.%%%%. ",
".%%%..@.###......#.@@@...%%%%%. ",
".%%%%%..##$$##.###$$@@.%%%%%%%. ",
".%%%%%%..#$$##.##$$@...%%%%%%%. ",
".%%%%%%.&.$$##.#$$..&&.%%%%%%%. ",
".%%%%%%.&&$$##.$$.&&&&.%%%%%%%. ",
".%%%%%%.&&$$..$$.&&&&&.%%%%%%%. ",
".%%%%%%.&&$$&$$&&&&&&&.%%%%%..  ",
" ..%%%%.&&$$$$$$&&&&&&.%%%..    ",
"   ..%%.&&$$$&.$$&&&&&.%%.      ",
"     ...&&$$&&.&$$&&&&...       ",
"       .&&$$&&.&&$$&&..         ",
"        ..$$&&.&&&$$.           ",
"          ..&&.&&&..            ",
"            ...&..              ",
"              ..                "};
