/* XPM */
static char * noconnect_xpm[] = {
"52 21 10 1",
" 	c None",
".	c #FC0300",
"+	c #004FFB",
"@	c #FB00C9",
"#	c #004EFA",
"$	c #00FB8F",
"%	c #FA00C9",
"&	c #004EFB",
"*	c #004FFA",
"=	c #FA00CA",
"                .                   .               ",
"                 .                 .                ",
"                  .               .                 ",
"                   .             .                  ",
"                    .           .                   ",
"                     .         .                    ",
"  +++++               .       .                     ",
" +++++++               .     .               @@@@@  ",
"+++++++++               .. ..               @@@@@@@ ",
"++#$$$$$$$$$$$$$$$$$$$$$.....              %@@@@@@@@",
"++&$$$$$$$$$$$$$$$$$$$$$$...$$$$$$$$$$$$$$$$$$$$$@@@",
"++#$$$$$$$$$$$$$$$$$$$$$.....$$$$$$$$$$$$$$$$$$$$@@@",
"+++++++#*               ..$..$$$$$$$$$$$$$$$$$$$$@@@",
" +++++++               .     .             ====@%@@@",
"  +++++               .       .             @@@@@@@ ",
"                     .         .             @@@@@  ",
"                    .           .                   ",
"                   .             .                  ",
"                  .               .                 ",
"                 .                 .                ",
"                .                   .               "};
