/* XPM */
static char *ksokoban-16[] = {
/* columns rows colors chars-per-pixel */
"16 16 161 2",
"   c black",
".  c #4D0000",
"X  c #570000",
"o  c #430623",
"O  c #5C1430",
"+  c #670000",
"@  c #6F1511",
"#  c #730000",
"$  c #760020",
"%  c #6F2934",
"&  c #663133",
"*  c #7C3024",
"=  c #850000",
"-  c #860001",
";  c #83000D",
":  c #890506",
">  c #8E0005",
",  c #940B0F",
"<  c #9D2107",
"1  c #98260A",
"2  c #9E2C07",
"3  c #9E2F1F",
"4  c #95381A",
"5  c #82242B",
"6  c #8B292B",
"7  c #803F3B",
"8  c #933238",
"9  c #9E3F32",
"0  c #AA0B00",
"q  c #A2100A",
"w  c #A01C07",
"e  c #A41A14",
"r  c #A51D1E",
"t  c #BB0007",
"y  c #BD0601",
"u  c #B30310",
"i  c #B20014",
"p  c #BA0F19",
"a  c #A62601",
"s  c #A72A0E",
"d  c #AA2312",
"f  c #A53B19",
"g  c #BA3500",
"h  c #BD320E",
"j  c #BD390A",
"k  c #BE3110",
"l  c #B13E26",
"z  c #B83F27",
"x  c #8D403F",
"c  c #BE451D",
"v  c #AC4627",
"b  c #A6473C",
"n  c #AB493D",
"m  c #A45133",
"M  c #9B504F",
"N  c #B45840",
"B  c #C60708",
"V  c #C50F03",
"C  c #CB0D00",
"Z  c #CE1600",
"A  c #CD2A00",
"S  c #C0360B",
"D  c #C33C05",
"F  c #C93C03",
"G  c #D32E18",
"H  c #E42300",
"J  c #E23000",
"K  c #FF2002",
"L  c #D64302",
"P  c #D34A0E",
"I  c #DB4311",
"U  c #DF4B11",
"Y  c #C34525",
"T  c #CD522C",
"R  c #DE6037",
"E  c #DF6339",
"W  c #E84400",
"Q  c #FF5300",
"!  c #FF5D08",
"~  c #FF6C1E",
"^  c #EF662E",
"/  c #EC6F3A",
"(  c #F76F2D",
")  c #FE6C29",
"_  c #F66E35",
"`  c #FF7C30",
"'  c #C1695C",
"]  c #D56545",
"[  c #D56548",
"{  c #D66C48",
"}  c #DF6742",
"|  c #DF6842",
" . c #D66D55",
".. c #DE765C",
"X. c #CA7062",
"o. c #DF7D64",
"O. c #E16842",
"+. c #E16D4C",
"@. c #EE7B49",
"#. c #CD8072",
"$. c #F6834D",
"%. c #FB8247",
"&. c #FC8950",
"*. c #FE8E54",
"=. c #E78462",
"-. c #E88363",
";. c #EF8760",
":. c #E48C71",
">. c #E0907B",
",. c #E5927F",
"<. c #E9967C",
"1. c #FF9B61",
"2. c #F19973",
"3. c #F29874",
"4. c #F49E77",
"5. c #F19A7E",
"6. c #F89973",
"7. c #F89B76",
"8. c #DD9E94",
"9. c #DDABA6",
"0. c #E49E8B",
"q. c #EFA38A",
"w. c #E9AA97",
"e. c #EFA994",
"r. c #EBAF9F",
"t. c #ECAD9B",
"y. c #F0A384",
"u. c #F7A786",
"i. c #F1A18A",
"p. c #FAA581",
"a. c #F1AB93",
"s. c #FFB08B",
"d. c #FFB98F",
"f. c #F1B09B",
"g. c #FFB993",
"h. c #FFB994",
"j. c #E4AEA1",
"k. c #E8B3A7",
"l. c #EEB4A2",
"z. c #EEB9A9",
"x. c #E4BEB6",
"c. c #F2B6A3",
"v. c #F9BCA8",
"b. c #DDC1BE",
"n. c #FFC89B",
"m. c #EDC2B9",
"M. c #FFCDA3",
"N. c #FFCAB6",
"B. c #FAC8B8",
"V. c #FBCCBA",
"C. c #FFD2BA",
"Z. c #E6D9DD",
"A. c #ECDBDA",
"S. c #F3CCC4",
"D. c #F5D1C7",
"F. c #F3DBD9",
"G. c #F4E2DF",
"H. c #F6E0DE",
"J. c #FEEBE4",
"K. c #F7F0F3",
"L. c None",
/* pixels */
"  L.L.L.7 x T @.*.^ b & L.L.L.  ",
"L.L.O % X.i.B.m.9.S.v.,.M o L.L.",
"L.$ n ..5.f.z.x.b.k.w.<.o.' 8 L.",
"L.i c +.0.l.V.A.Z.r.q.>.[ Y 3 - ",
"L.s l #.e.N.J.K.H.j.7.-. .z 1 : ",
"q 6 9 O.u.C.F.H.D.8.;._ I A * , ",
"L.u v ) 1.y.t.c.e.:.] ~ Q F r . ",
"L.L.p m ` / $.&.%.( U ! P 5 > L.",
"  L.; e N M.h.g.d.s.n.{ @ B L.L.",
"L.  L.t a =.p.2.2.4.6.2 V L.L.L.",
"L.L.L.L.C g | E R O.D Z + L.L.L.",
"L.L.L.L.L.H j k h S J # L.L.L.L.",
"L.L.L.L.L.- W < w L y L.L.L.L.L.",
"L.L.L.L.L.L.0 f 4 K L.L.L.L.L.L.",
"L.L.L.L.L.L.L.d G L.L.L.L.L.L.L.",
"L.L.L.L.L.L.L.L.X L.L.L.L.L.L.L."
};
