/* XPM */
static char *rand[]={
"16 16 20 1",
"e c None",
". c None",
"# c #000000",
"r c #000080",
"p c #0000c0",
"q c #0000ff",
"o c #008000",
"m c #00c000",
"n c #00ff00",
"k c #808000",
"b c #c05800",
"i c #c0c000",
"l c #c0ffc0",
"g c #ff0000",
"f c #ff8000",
"c c #ffa858",
"a c #ffc0c0",
"d c #ffdca8",
"j c #ffff00",
"h c #ffffc0",
".####.......###.",
"..#a#......#bcc#",
"...##.....#dcbc#",
".........e#cff#.",
"######..eee#f#..",
"#aagg#..eee##...",
"#aagg###eeee....",
"#ddfcff#........",
"#fffcff###......",
"#hhijiikk#......",
"#iiijiikk###....",
"##lmnmmoooo#....",
"e##mnmmoooo#....",
"ee#pqpprprr#....",
"ee##qpprprr#....",
"eee#########...."};
