/* XPM */
static char *kspaceduel-16[] = {
/* columns rows colors chars-per-pixel */
"16 16 84 1",
"  c black",
". c #090606",
"X c #16120D",
"o c #202019",
"O c #232323",
"+ c #272727",
"@ c gray20",
"# c #393939",
"$ c #421200",
"% c #551C00",
"& c #44423F",
"* c #5D5023",
"= c #7D4000",
"- c #474545",
"; c #535353",
": c #5D5B57",
"> c #5C5A5C",
", c #6B6B5D",
"< c #736C55",
"1 c #776E58",
"2 c gray38",
"3 c #686363",
"4 c #6B6969",
"5 c #6D6969",
"6 c #727366",
"7 c #777575",
"8 c #526BBA",
"9 c #5970BA",
"0 c #407CDB",
"q c #457DD9",
"w c #3E97DE",
"e c #3B99DE",
"r c #4DBBEC",
"t c #53B8E9",
"y c #72D4F9",
"u c #78D3F7",
"i c #886B2E",
"p c #AF6000",
"a c #807F7F",
"s c #827D7D",
"d c #C75B00",
"f c #C95D00",
"g c #CC6600",
"h c #DC6800",
"j c #FFAC00",
"k c #FFAD00",
"l c #FAD326",
"z c #FBDC29",
"x c #858383",
"c c #8A8A8C",
"v c #918F94",
"b c #949391",
"n c #B1ACAA",
"m c #B1B0B3",
"M c #B3B2B2",
"N c #B4B3B4",
"B c #B4B5B6",
"V c #B7B8B7",
"C c #B8B5B5",
"Z c #C0BFBF",
"A c #D0D0AB",
"S c #D8D5AD",
"D c #C8CDD5",
"F c #CDCFD4",
"G c #C5D0D7",
"H c #CAD1D8",
"J c #D0DCDE",
"K c #D4DCDD",
"L c #DDDDDD",
"P c #E0E0DD",
"I c #E9E8D8",
"U c gray88",
"Y c #E6E5E0",
"T c #E7E5E3",
"R c #E9E7E7",
"E c #EEEBEA",
"W c #EFEDED",
"Q c #F5F3E4",
"! c #F6F5F3",
"~ c #F7F6F5",
"^ c #F3F8F8",
"/ c gray98",
"( c #FAFAFC",
") c None",
/* pixels */
")))))))fg)))))))",
")))))))hd)))))))",
"))))))$jj%))))))",
"))))))=lzp))))))",
"))))))*SAi))))))",
"))))) ,VB6 )))))",
"))X<cLY98PUv1o))",
"))&I/~Fq0D!(Q:))",
"))-BxTHweGEbm>))",
"))+2 5KtrJs ;#))",
"))  ) nuyC.)  ))",
"))))))3^^7))))))",
"))))))ORW@))))))",
")))))) mZ ))))))",
")))))))4a)))))))",
")))))))  )))))))"
};
