/* XPM */
static char *saveas[]={
"14 14 8 1",
"f c None",
". c #040404",
"e c #808080",
"# c #808304",
"a c #bfc2bf",
"c c #c0c000",
"b c #ff0000",
"d c #ffff00",
"..............",
".#.aaaaaaaa.a.",
".#.aaaaaaaabb.",
".#.aaaaaaacdb.",
".#.aaaaaacdc#.",
".#.aaaaacdc.#.",
".#.aaaacdca.#.",
".##...cdc..##.",
".####cdc#####.",
".##.cdc.....#.",
".##eee...aa.#.",
".##e.....aa.#.",
".##......aa.#.",
"f............."};
