/* XPM */
static char * tryconnect_xpm[] = {
"52 11 4 1",
" 	c None",
".	c #00FB8F",
"+	c #004FFB",
"@	c #FB00C9",
"            ...                                     ",
"  +++++     ....                                    ",
" +++++++    .....                            @@@@@  ",
"+++++++++    .....                          @@@@@@@ ",
"+++++++++..........                        @@@@@@@@@",
"+++++++++..........                        @@@@@@@@@",
"+++++++++..........                        @@@@@@@@@",
"+++++++++    .....                         @@@@@@@@@",
" +++++++    .....                          @@@@@@@@@",
"  +++++     ....                            @@@@@@@ ",
"            ...                              @@@@@  "};
