/* XPM */
static char *vrx[]={
"16 16 54 1",
". c None",
"e c #000000",
"V c #090606",
"h c #16120d",
"q c #202019",
"Y c #232323",
"L c #272727",
"Z c #333333",
"S c #393939",
"r c #44423f",
"B c #474545",
"R c #535353",
"K c #5c5a5c",
"c c #5d5023",
"A c #5d5b57",
"M c #616161",
"W c #686363",
"f c #6b6b5d",
"N c #6d6969",
"g c #727366",
"i c #736c55",
"p c #776e58",
"X c #777575",
"a c #7d4000",
"Q c #827d7d",
"D c #858383",
"d c #886b2e",
"j c #8a8a8c",
"o c #918f94",
"I c #949391",
"b c #af6000",
"T c #b1acaa",
"J c #b1b0b3",
"C c #b4b5b6",
"U c #b8b5b5",
"G c #c5d0d7",
"w c #c8cdd5",
"F c #cad1d8",
"v c #cdcfd4",
"P c #d0dcde",
"O c #d4dcdd",
"k c #dddddd",
"m c #e0e0dd",
"n c #e0e0e0",
"l c #e6e5e0",
"E c #e7e5e3",
"s c #e9e8d8",
"H c #eeebea",
"z c #f5f3e4",
"x c #f6f5f3",
"u c #f7f6f5",
"t c #fafafa",
"y c #fafafc",
"# c #ff0000",
".......##.......",
"......####......",
".....######.....",
"......a##b......",
"......c##d......",
".....ef##ge.....",
"..hijkl##mnopq..",
"..rstuv##wxyzA..",
"..BCDEF##GHIJK..",
"..LMeNO##PQeRS..",
"..ee.eT##UV.ee..",
"......W##X......",
"......Y##Z......",
".....######.....",
"......####......",
".......##......."};
