/* XPM */
static char *vrzoom[]={
"16 16 71 2",
"Qt c None",
".p c #000000",
".b c #0000c0",
".9 c #00c000",
".z c #202019",
"#. c #232323",
"#b c #333333",
".2 c #393939",
".Q c #3b99de",
".P c #3e97de",
".G c #407cdb",
".A c #44423f",
".F c #457dd9",
".L c #474545",
".Z c #4dbbec",
".v c #526bba",
".1 c #535353",
".Y c #53b8e9",
".u c #5970ba",
".U c #5c5a5c",
".K c #5d5b57",
".V c #616161",
"#d c #6b6969",
".l c #6b6b5d",
".W c #6d6969",
".o c #727366",
".5 c #72d4f9",
".q c #736c55",
".y c #776e58",
".8 c #777575",
".4 c #78d3f7",
".e c #7d4000",
"#e c #807f7f",
".6 c #808000",
".M c #858383",
".k c #886b2e",
".r c #8a8a8c",
".h c #af6000",
".3 c #b1acaa",
".T c #b1b0b3",
".n c #b4b5b6",
".m c #b7b8b7",
".7 c #c00000",
"#c c #c0bfbf",
".c c #c0ffff",
".R c #c5d0d7",
".H c #c8cdd5",
".# c #c95d00",
".O c #cad1d8",
".a c #cc6600",
".E c #cdcfd4",
".j c #d0d0ab",
".0 c #d0dcde",
".X c #d4dcdd",
".i c #d8d5ad",
".s c #dddddd",
".w c #e0e0dd",
".x c #e0e0e0",
".t c #e6e5e0",
".N c #e7e5e3",
"## c #e9e7e7",
".B c #e9e8d8",
".S c #eeebea",
"#a c #efeded",
".J c #f5f3e4",
".I c #f6f5f3",
".D c #f7f6f5",
".f c #fad326",
".C c #fafafa",
".g c #fbdc29",
".d c #ffac00",
"QtQtQtQtQtQtQt.#.aQtQtQtQtQtQtQt",
"QtQtQtQt.b.b.b.b.bQtQtQtQtQtQtQt",
"QtQtQt.b.c.c.c.d.d.bQtQtQtQtQtQt",
"QtQt.b.cQtQt.e.f.g.h.bQtQtQtQtQt",
"Qt.b.c.cQtQt.c.i.j.kQt.bQtQtQtQt",
"Qt.b.cQt.c.c.l.m.n.o.p.bQtQtQtQt",
"Qt.b.c.q.r.s.t.u.v.w.x.b.y.zQtQt",
"Qt.b.A.B.C.D.E.F.G.H.I.b.J.KQtQt",
"Qt.b.L.n.M.N.O.P.Q.R.S.b.T.UQtQt",
"QtQt.b.V.p.W.X.Y.Z.0.b.p.1.2QtQt",
"QtQt.p.bQt.p.3.4.5.b.6.7.p.pQtQt",
"QtQtQtQt.b.b.b.b.b.8.7.6.7QtQtQt",
"QtQt.9QtQtQt#.###a#bQt.7.6.7QtQt",
"Qt.9.9.9QtQt.p.T#c.pQtQt.7.6.7Qt",
"QtQt.9QtQtQtQt#d#eQtQtQtQt.7.6Qt",
"QtQtQtQtQtQtQt.p.pQtQtQtQtQtQtQt"};
