/* XPM */
static char *vsx[]={
"16 16 42 1",
". c None",
"# c #000000",
"M c #060606",
"c c #121212",
"N c #151515",
"L c #191919",
"F c #1f1f1f",
"t c #222222",
"H c #272727",
"n c #282828",
"D c #2e2e2e",
"b c #303030",
"a c #343434",
"G c #3c3c3c",
"J c #414141",
"K c #474747",
"g c #4b4b4b",
"d c #4d4d4d",
"E c #505050",
"u c #565656",
"I c #5b5b5b",
"v c #5d5d5d",
"C c #5f5f5f",
"A c #646464",
"i c #696969",
"m c #6d6d6d",
"o c #727272",
"e c #767676",
"f c #7a7a7a",
"p c #808080",
"j c #878787",
"q c #8a8a8a",
"l c #b6b6b6",
"B c #bfbfbf",
"w c #c2c2c2",
"y c #c5c5c5",
"k c #cacaca",
"s c #e1e1e1",
"x c #e4e4e4",
"r c #e5e5e5",
"z c #f7f7f7",
"h c #ff0000",
"......#ab#......",
".....cdefgchhhh.",
"...#bifjklmnhhh.",
"..cdooepqrshhhh.",
".tuveqwxyzhhhvh.",
".nvAfsBqqhhhoCD.",
".tbEppemhhhpudn.",
".tbFGophhhegGdD.",
".FDHFHhhhIGJJgn.",
".FbHHhhhuGJJJdn.",
".FbHhhhdEgKKgEH.",
".hLhhhavCuuIEn#.",
".hhhhJKAmCiEL#..",
".hhhMDEfpoGM....",
".hhhh#Leet#.....",
"......#Nc#......"};
