/* XPM */
static char *vreta[]={
"16 16 80 2",
"Qt c None",
".o c #000000",
"#f c #090606",
".t c #16120d",
".E c #202019",
"#j c #232323",
".2 c #272727",
"#m c #333333",
"## c #393939",
".W c #3b99de",
".V c #3e97de",
".L c #407cdb",
".d c #421200",
".F c #44423f",
".K c #457dd9",
".R c #474545",
".7 c #4dbbec",
".z c #526bba",
"#. c #535353",
".6 c #53b8e9",
".f c #551c00",
".y c #5970ba",
".1 c #5c5a5c",
".k c #5d5023",
".Q c #5d5b57",
".3 c #616161",
"#g c #686363",
".p c #6b6b5d",
".4 c #6d6969",
".s c #727366",
"#d c #72d4f9",
".u c #736c55",
".D c #776e58",
"#i c #777575",
"#c c #78d3f7",
".g c #7d4000",
".9 c #827d7d",
".S c #858383",
".n c #886b2e",
".v c #8a8a8c",
".C c #918f94",
".Z c #949391",
".j c #af6000",
"#b c #b1acaa",
".0 c #b1b0b3",
".r c #b4b5b6",
".q c #b7b8b7",
"#e c #b8b5b5",
"#n c #c0bfbf",
".X c #c5d0d7",
".c c #c75b00",
".M c #c8cdd5",
".# c #c95d00",
".U c #cad1d8",
".a c #cc6600",
".J c #cdcfd4",
".m c #d0d0ab",
".8 c #d0dcde",
".5 c #d4dcdd",
".l c #d8d5ad",
".b c #dc6800",
".w c #dddddd",
".A c #e0e0dd",
".B c #e0e0e0",
".x c #e6e5e0",
".T c #e7e5e3",
"#k c #e9e7e7",
".G c #e9e8d8",
".Y c #eeebea",
"#l c #efeded",
"#h c #f3f8f8",
".P c #f5f3e4",
".N c #f6f5f3",
".I c #f7f6f5",
".h c #fad326",
".H c #fafafa",
".O c #fafafc",
".i c #fbdc29",
"#a c #ff0000",
".e c #ffac00",
"QtQtQtQtQtQtQt.#.aQtQtQtQtQtQtQt",
"QtQtQtQtQtQtQt.b.cQtQtQtQtQtQtQt",
"QtQtQtQtQtQt.d.e.e.fQtQtQtQtQtQt",
"QtQtQtQtQtQt.g.h.i.jQtQtQtQtQtQt",
"QtQtQtQtQtQt.k.l.m.nQtQtQtQtQtQt",
"QtQtQtQtQt.o.p.q.r.s.oQtQtQtQtQt",
"QtQt.t.u.v.w.x.y.z.A.B.C.D.EQtQt",
"QtQt.F.G.H.I.J.K.L.M.N.O.P.QQtQt",
"QtQt.R.r.S.T.U.V.W.X.Y.Z.0.1QtQt",
"QtQt.2.3.o.4.5.6.7.8.9.o#.##QtQt",
"Qt#a#a#aQt.o#b#c#d#e#fQt#a#a#aQt",
"Qt#a#aQtQtQt#g#h#h#iQtQtQt#a#aQt",
"Qt#a#a#a#aQt#j#k#l#mQt#a#a#a#aQt",
"Qt#aQt#a#a#a#a.0#n#a#a#a#aQt#aQt",
"QtQtQtQtQt#a#a#a#a#a#aQtQtQtQtQt",
"QtQtQtQtQtQtQt#a#aQtQtQtQtQtQtQt"};
