/* XPM */
static char *vrtheta[]={
"16 16 65 2",
".F c None",
"Qt c None",
".o c #000000",
".t c #16120d",
".E c #202019",
".6 c #232323",
".7 c #333333",
".T c #3b99de",
".S c #3e97de",
".L c #407cdb",
".d c #421200",
".K c #457dd9",
".1 c #4dbbec",
".z c #526bba",
".0 c #53b8e9",
".f c #551c00",
".y c #5970ba",
".k c #5d5023",
".9 c #6b6969",
".p c #6b6b5d",
".Y c #6d6969",
".s c #727366",
".5 c #72d4f9",
".u c #736c55",
".D c #776e58",
".4 c #78d3f7",
".g c #7d4000",
"#. c #807f7f",
".3 c #827d7d",
".P c #858383",
".n c #886b2e",
".v c #8a8a8c",
".C c #918f94",
".W c #949391",
".j c #af6000",
".X c #b1b0b3",
".r c #b4b5b6",
".q c #b7b8b7",
".8 c #c0bfbf",
".U c #c5d0d7",
".c c #c75b00",
".M c #c8cdd5",
".# c #c95d00",
".R c #cad1d8",
".a c #cc6600",
".J c #cdcfd4",
".m c #d0d0ab",
".2 c #d0dcde",
".Z c #d4dcdd",
".l c #d8d5ad",
".b c #dc6800",
".w c #dddddd",
".A c #e0e0dd",
".B c #e0e0e0",
".x c #e6e5e0",
".Q c #e7e5e3",
".V c #eeebea",
".N c #f6f5f3",
".I c #f7f6f5",
".h c #fad326",
".H c #fafafa",
".O c #fafafc",
".i c #fbdc29",
".G c #ff0000",
".e c #ffac00",
"QtQtQtQtQtQtQt.#.aQtQtQtQtQtQtQt",
"QtQtQtQtQtQtQt.b.cQtQtQtQtQtQtQt",
"QtQtQtQtQtQt.d.e.e.fQtQtQtQtQtQt",
"QtQtQtQtQtQt.g.h.i.jQtQtQtQtQtQt",
"QtQtQtQtQtQt.k.l.m.nQtQtQtQtQtQt",
"QtQtQtQtQt.o.p.q.r.s.oQtQtQtQtQt",
"QtQt.t.u.v.w.x.y.z.A.B.C.D.E.FQt",
"Qt.G.G.G.H.I.J.K.L.M.N.O.G.G.GQt",
"Qt.G.G.r.P.Q.R.S.T.U.V.W.X.G.GQt",
"Qt.G.G.G.o.Y.Z.0.1.2.3.o.G.G.GQt",
"Qt.G.o.G.G.G.G.4.5.G.G.G.G.o.GQt",
"QtQtQtQt.G.G.G.G.G.G.G.GQtQtQtQt",
"QtQtQtQtQtQt.6.G.G.7QtQtQtQtQtQt",
"QtQtQtQtQtQt.o.X.8.oQtQtQtQtQtQt",
"QtQtQtQtQtQtQt.9#.QtQtQtQtQtQtQt",
"QtQtQtQtQtQtQt.o.oQtQtQtQtQtQtQt"};
