/* XPM */
static char *vseta[]={
"16 16 40 1",
". c None",
"# c #000000",
"c c #121212",
"B c #1f1f1f",
"t c #222222",
"I c #272727",
"m c #282828",
"E c #2e2e2e",
"b c #303030",
"a c #343434",
"G c #3c3c3c",
"K c #414141",
"s c #474747",
"g c #4b4b4b",
"d c #4d4d4d",
"F c #505050",
"u c #565656",
"J c #5b5b5b",
"v c #5d5d5d",
"D c #5f5f5f",
"A c #646464",
"h c #696969",
"l c #6d6d6d",
"n c #727272",
"e c #767676",
"f c #7a7a7a",
"H c #7d7d7d",
"o c #808080",
"i c #878787",
"p c #8a8a8a",
"k c #b6b6b6",
"C c #bfbfbf",
"w c #c2c2c2",
"y c #c5c5c5",
"j c #cacaca",
"r c #e1e1e1",
"x c #e4e4e4",
"q c #e5e5e5",
"z c #f7f7f7",
"L c #ff0000",
"......#ab#......",
".....cdefgc.....",
"...#bhfijklm#...",
"..cdnneopqrfsc..",
".tuvepwxyzzoAvB.",
".mvAfrCpppehnDE.",
".tbFooelhDloudm.",
".tbBGnofeHegGdE.",
".BEIBIFffJGKKgm.",
"LLLLIItFuGKKLLLL",
"LLLIIIIdFgssgLLL",
"LLLLEEavDuuJLLLL",
"L.LLLKsAlDhLLL.L",
"...LLLFfonLLL...",
"....LLLLLLLL....",
"......LLLL......"};
