/* XPM */
static char *vrphi[]={
"16 16 56 1",
". c None",
"h c #000000",
"l c #16120d",
"u c #202019",
"O c #272727",
"V c #393939",
"K c #3b99de",
"J c #3e97de",
"B c #407cdb",
"v c #44423f",
"A c #457dd9",
"F c #474545",
"T c #4dbbec",
"r c #526bba",
"U c #535353",
"S c #53b8e9",
"c c #551c00",
"q c #5970ba",
"N c #5c5a5c",
"e c #5d5023",
"E c #5d5b57",
"P c #616161",
"Z c #686363",
"i c #6b6b5d",
"Q c #6d6969",
"Y c #72d4f9",
"m c #736c55",
"t c #776e58",
"X c #78d3f7",
"G c #858383",
"n c #8a8a8c",
"s c #918f94",
"W c #b1acaa",
"M c #b1b0b3",
"k c #b4b5b6",
"j c #b7b8b7",
"L c #c5d0d7",
"C c #c8cdd5",
"# c #c95d00",
"I c #cad1d8",
"a c #cc6600",
"z c #cdcfd4",
"g c #d0d0ab",
"R c #d4dcdd",
"f c #d8d5ad",
"o c #dddddd",
"p c #e6e5e0",
"H c #e7e5e3",
"1 c #e9e7e7",
"w c #e9e8d8",
"0 c #f3f8f8",
"D c #f5f3e4",
"y c #f7f6f5",
"d c #fad326",
"x c #fafafa",
"b c #ff0000",
".......#a.......",
"......bbbb......",
"......bbbc......",
"......bdbb......",
"......efgbb.....",
".....hijkbb.....",
"..lmnopqrbbstu..",
"..vwxyzABCbbDE..",
"..FkGHIJKLbbMN..",
"..OPhQRSTbbhUV..",
"..hh.hWXYbb.hh..",
"......Z00bb.....",
"......b1bb......",
"......bbbh......",
"......bbbb......",
".......hh......."};
