/* XPM */
static char *vrz[]={
"16 16 69 2",
".e c None",
"Qt c None",
".q c #000000",
".4 c #090606",
".u c #16120d",
".C c #202019",
".8 c #232323",
".U c #272727",
"## c #333333",
".0 c #393939",
".f c #421200",
".D c #44423f",
".M c #474545",
".W c #4dbbec",
".Z c #535353",
".h c #551c00",
".z c #5970ba",
".T c #5c5a5c",
".m c #5d5023",
".L c #5d5b57",
".V c #616161",
".5 c #686363",
"#b c #6b6969",
".r c #6b6b5d",
".2 c #72d4f9",
".v c #736c55",
".B c #776e58",
".7 c #777575",
".1 c #78d3f7",
".i c #7d4000",
"#c c #807f7f",
".Y c #827d7d",
".N c #858383",
".p c #886b2e",
".w c #8a8a8c",
".A c #918f94",
".R c #949391",
".l c #af6000",
".S c #b1b0b3",
".t c #b4b5b6",
".s c #b7b8b7",
".3 c #b8b5b5",
"#a c #c0bfbf",
".P c #c5d0d7",
".d c #c75b00",
".# c #c95d00",
".a c #cc6600",
".H c #cdcfd4",
".o c #d0d0ab",
".X c #d0dcde",
".n c #d8d5ad",
".c c #dc6800",
".x c #dddddd",
".y c #e6e5e0",
".O c #e7e5e3",
".9 c #e9e7e7",
".E c #e9e8d8",
".Q c #eeebea",
"#. c #efeded",
".6 c #f3f8f8",
".K c #f5f3e4",
".I c #f6f5f3",
".G c #f7f6f5",
".j c #fad326",
".F c #fafafa",
".J c #fafafc",
".k c #fbdc29",
".b c #ff0000",
".g c #ffac00",
"QtQtQtQtQtQtQt.#.aQtQtQt.b.b.b.b",
"QtQtQtQtQtQtQt.c.dQtQt.e.e.b.b.b",
"QtQtQtQtQtQt.f.g.g.hQtQt.b.b.b.b",
"QtQtQtQtQtQt.i.j.k.lQt.b.b.b.e.b",
"QtQtQtQtQtQt.m.n.o.p.b.b.bQt.eQt",
"QtQtQtQtQt.q.r.s.t.b.b.bQtQtQtQt",
"QtQt.u.v.w.x.y.z.b.b.b.A.B.CQtQt",
"QtQt.D.E.F.G.H.b.b.b.I.J.K.LQtQt",
"QtQt.M.t.N.O.b.b.b.P.Q.R.S.TQtQt",
"QtQt.U.V.q.b.b.b.W.X.Y.q.Z.0QtQt",
"QtQt.q.q.b.b.b.1.2.3.4Qt.q.qQtQt",
"Qt.eQt.b.b.b.5.6.6.7QtQtQtQtQtQt",
".b.e.b.b.bQt.8.9#.##QtQtQtQtQtQt",
".b.b.b.bQtQt.q.S#a.qQtQtQtQtQtQt",
".b.b.b.e.eQtQt#b#cQtQtQtQtQtQtQt",
".b.b.b.bQtQtQt.q.qQtQtQtQtQtQtQt"};
