/* XPM */
static char *vsphi[]={
"16 16 37 1",
". c None",
"b c #000000",
"I c #060606",
"H c #0e0e0e",
"a c #121212",
"F c #191919",
"u c #1f1f1f",
"m c #222222",
"B c #272727",
"f c #282828",
"x c #2e2e2e",
"c c #303030",
"G c #343434",
"z c #3c3c3c",
"D c #414141",
"l c #474747",
"E c #4b4b4b",
"g c #4d4d4d",
"y c #505050",
"n c #565656",
"C c #5b5b5b",
"o c #5d5d5d",
"w c #5f5f5f",
"t c #646464",
"d c #696969",
"e c #6d6d6d",
"h c #727272",
"p c #767676",
"k c #7a7a7a",
"A c #7d7d7d",
"i c #808080",
"q c #8a8a8a",
"v c #bfbfbf",
"r c #c2c2c2",
"j c #e1e1e1",
"s c #e4e4e4",
"# c #ff0000",
"......#####.....",
".....a####a.....",
"...bcd####efb...",
"..aghh#i##jkla..",
".mnopqrs###itou.",
".fotkjvqq##dhwx.",
".mcyiiped###ngf.",
".mcuzhikpA##zgx.",
".uxBuBykkC##DEf.",
".ucBBBmyn###Dgf.",
".ucBBBBgy###EyB.",
".bFfxxGo###Cyfb.",
"..bHxD#t##dyFb..",
"....Ix####zI....",
".....b####b.....",
"......#####....."};
