<?xml version="1.0" encoding="UTF-8" standalone="no"?>
<!-- Created with Inkscape (http://www.inkscape.org/) -->

<svg
   xmlns:dc="http://purl.org/dc/elements/1.1/"
   xmlns:cc="http://creativecommons.org/ns#"
   xmlns:rdf="http://www.w3.org/1999/02/22-rdf-syntax-ns#"
   xmlns:svg="http://www.w3.org/2000/svg"
   xmlns="http://www.w3.org/2000/svg"
   xmlns:sodipodi="http://sodipodi.sourceforge.net/DTD/sodipodi-0.dtd"
   xmlns:inkscape="http://www.inkscape.org/namespaces/inkscape"
   width="610"
   height="60"
   id="svg3033"
   version="1.1"
   inkscape:version="0.48.0 r9654"
   inkscape:export-filename="/home/users/nestor.garcia/Documents/kautham/src/applications/graphical/icons/logo_48x48.png"
   inkscape:export-xdpi="90"
   inkscape:export-ydpi="90"
   sodipodi:docname="logo2.svg">
  <defs
     id="defs3035" />
  <sodipodi:namedview
     id="base"
     pagecolor="#ffffff"
     bordercolor="#666666"
     borderopacity="1.0"
     inkscape:pageopacity="0.0"
     inkscape:pageshadow="2"
     inkscape:zoom="1.4142136"
     inkscape:cx="256.96374"
     inkscape:cy="-100.13897"
     inkscape:document-units="px"
     inkscape:current-layer="capa1"
     showgrid="false"
     showguides="true"
     inkscape:guide-bbox="true"
     inkscape:window-width="1280"
     inkscape:window-height="1002"
     inkscape:window-x="1272"
     inkscape:window-y="-8"
     inkscape:window-maximized="1" />
  <metadata
     id="metadata3038">
    <rdf:RDF>
      <cc:Work
         rdf:about="">
        <dc:format>image/svg+xml</dc:format>
        <dc:type
           rdf:resource="http://purl.org/dc/dcmitype/StillImage" />
        <dc:title></dc:title>
      </cc:Work>
    </rdf:RDF>
  </metadata>
  <g
     inkscape:label="Capa 1"
     inkscape:groupmode="layer"
     id="capa1"
     transform="translate(0,-992.3622)">
    <path
       style="fill:#174eff;fill-opacity:1;stroke:none"
       d="m 1.9362965,1005.6667 5.5602375,-3.2601 7.182036,4.1308 0,-8.2448 6.722786,-3.9316 0,11.6405 22.177563,0 -7.300434,4.1525 -14.935754,0 7.300434,4.4875 -5.518369,3.1249 z"
       id="path3014"
       inkscape:connector-curvature="0"
       sodipodi:nodetypes="cccccccccccc" />
    <path
       style="fill:#174eff;fill-opacity:1;stroke:none"
       d="m 8.276777,1017.0968 -7.470777,-4.3133 0,-4.8981 21.034804,12.1443 0,4.8959 -7.531683,-4.3438 c 0,0 -0.07778,17.6837 0,17.6628 0.07777,-0.021 -6.032344,-3.4499 -6.032344,-3.4499 z"
       id="path3037"
       inkscape:connector-curvature="0"
       sodipodi:nodetypes="ccccccscc" />
    <path
       style="fill:#ff0000;fill-opacity:0;stroke:none"
       d="m 24.256548,1031.0787 0.0098,-11.1769 2.303153,-1.3656 c 4.401334,-2.6097 7.043463,-4.1486 8.090063,-4.7119 0.3087,-0.1663 0.857391,-0.4629 1.219316,-0.6594 0.979315,-0.5313 1.345048,-0.7074 1.734189,-0.8345 1.063088,-0.3474 2.426096,-0.4527 3.16243,-0.2442 0.739659,0.2094 1.501964,0.9129 1.876731,1.7315 0.276813,0.6047 0.349772,1.0524 0.344954,2.1163 -0.0068,1.515 -0.208899,2.8247 -0.597071,3.8708 -0.527554,1.4217 -1.098735,2.4304 -2.159278,3.8129 -1.12677,1.4687 -1.653215,1.9915 -2.96845,2.9471 -1.310569,0.9523 -5.234212,3.6138 -6.36754,4.3194 l -0.406439,0.253 -0.0099,3.6398 -0.0099,3.6395 -3.097988,1.9196 c -1.703894,1.0558 -3.106049,1.9196 -3.1159,1.9196 -0.0099,0 -0.01353,-5.0296 -0.0081,-11.177 z m 6.870759,-5.0455 c 2.610822,-1.4642 3.168256,-1.8293 3.783806,-2.4783 0.312808,-0.3299 0.458737,-0.5424 0.787647,-1.1473 0.528568,-0.9721 0.742085,-2.1012 0.568697,-3.0074 -0.09525,-0.4978 -0.294149,-0.7376 -0.712973,-0.8593 -0.329531,-0.096 -0.894949,-0.055 -1.359477,0.097 -0.4865,0.16 -0.917995,0.3979 -2.608024,1.4373 l -1.416093,0.871 -8.01e-4,2.8008 c -8e-4,2.5636 0.0045,2.7988 0.06178,2.7768 0.03441,-0.013 0.437347,-0.2341 0.89541,-0.4912 l 0,0 z"
       id="path3964"
       inkscape:connector-curvature="0" />
    <path
       style="fill:#ff0000;fill-opacity:0;stroke:none"
       d="m 24.256548,1031.0787 0.0098,-11.1769 2.303153,-1.3656 c 4.401334,-2.6097 7.043463,-4.1486 8.090063,-4.7119 0.3087,-0.1663 0.857391,-0.4629 1.219316,-0.6594 0.979315,-0.5313 1.345048,-0.7074 1.734189,-0.8345 1.063088,-0.3474 2.426096,-0.4527 3.16243,-0.2442 0.739659,0.2094 1.501964,0.9129 1.876731,1.7315 0.276813,0.6047 0.349772,1.0524 0.344954,2.1163 -0.0068,1.515 -0.208899,2.8247 -0.597071,3.8708 -0.527554,1.4217 -1.098735,2.4304 -2.159278,3.8129 -1.12677,1.4687 -1.653215,1.9915 -2.96845,2.9471 -1.310569,0.9523 -5.234212,3.6138 -6.36754,4.3194 l -0.406439,0.253 -0.0099,3.6398 -0.0099,3.6395 -3.097988,1.9196 c -1.703894,1.0558 -3.106049,1.9196 -3.1159,1.9196 -0.0099,0 -0.01353,-5.0296 -0.0081,-11.177 z m 6.870759,-5.0455 c 2.610822,-1.4642 3.168256,-1.8293 3.783806,-2.4783 0.312808,-0.3299 0.458737,-0.5424 0.787647,-1.1473 0.528568,-0.9721 0.742085,-2.1012 0.568697,-3.0074 -0.09525,-0.4978 -0.294149,-0.7376 -0.712973,-0.8593 -0.329531,-0.096 -0.894949,-0.055 -1.359477,0.097 -0.4865,0.16 -0.917995,0.3979 -2.608024,1.4373 l -1.416093,0.871 -8.01e-4,2.8008 c -8e-4,2.5636 0.0045,2.7988 0.06178,2.7768 0.03441,-0.013 0.437347,-0.2341 0.89541,-0.4912 l 0,0 z"
       id="path3966"
       inkscape:connector-curvature="0" />
    <path
       style="fill:#ff00fd;fill-opacity:0;stroke:none"
       d="m 10.577967,1017.779 0,22.475 6.346179,-3.9309 0,-7.2726 c 0,0 1.309494,-0.7347 6.370898,-4.2748 1.161959,-0.8127 1.911031,-1.4466 2.44981,-2.0832 0.755857,-0.8929 1.972324,-2.4598 2.407558,-3.4044 0.301759,-0.6549 0.925194,-1.9044 1.104825,-3.1902 0.276775,-1.9813 0.242111,-3.259 -0.01962,-4.0493 -0.299363,-0.904 -0.998432,-1.7176 -1.857525,-2.0586 -1.167199,-0.4629 -3.138905,0.045 -3.754578,0.3064 -0.615673,0.2603 -1.278707,0.6867 -2.652134,1.397 -1.373425,0.7104 -10.395416,6.0856 -10.395416,6.0856 z"
       id="path3020-9"
       inkscape:connector-curvature="0"
       sodipodi:nodetypes="ccccsssssassc" />
    <path
       style="fill:#ff00fd;fill-opacity:0;stroke:none"
       d="m 16.595485,1018.8663 0,5.5174 c 0,0 3.14909,-1.7534 3.670838,-2.1194 0.521747,-0.3657 1.180357,-0.9146 1.526868,-1.5332 0.362368,-0.6467 0.62624,-0.9963 0.821015,-2.0372 0.0806,-0.4307 0.119982,-0.9593 -0.02462,-1.5759 -0.142775,-0.6088 -0.733941,-0.734 -1.231591,-0.7113 -0.840607,0.039 -1.619084,0.5434 -2.032397,0.7813 -0.32363,0.1862 -2.653765,1.6593 -2.730108,1.6783 z"
       id="path3022-5"
       inkscape:connector-curvature="0"
       sodipodi:nodetypes="cczsssssc" />
    <path
       style="fill:#000000;fill-opacity:0;stroke:none"
       d="m 24.356323,1031.2113 0.0098,-11.177 2.303153,-1.3656 c 4.401332,-2.6098 7.043465,-4.1486 8.090063,-4.7121 0.308701,-0.1661 0.857393,-0.4627 1.219314,-0.6591 0.979316,-0.5315 1.34505,-0.7076 1.73419,-0.8346 1.063091,-0.3475 2.426099,-0.4527 3.162428,-0.2441 0.739662,0.2093 1.501964,0.9126 1.876733,1.7313 0.276809,0.6049 0.349774,1.0524 0.34495,2.1163 -0.0068,1.5151 -0.208894,2.8248 -0.597073,3.8709 -0.527547,1.4217 -1.098732,2.4302 -2.159272,3.8128 -1.126771,1.4689 -1.653215,1.9915 -2.96845,2.9472 -1.310569,0.9521 -5.234212,3.6137 -6.367537,4.3194 l -0.40644,0.2529 -0.0099,3.6398 -0.0099,3.6396 -3.097989,1.9196 c -1.703893,1.0558 -3.106048,1.9011 -3.115899,1.9011 -0.0099,0 -0.01353,-5.0112 -0.0082,-11.1584 z m 6.870759,-5.0455 c 2.610821,-1.4643 3.168259,-1.8293 3.783804,-2.4785 0.312807,-0.3298 0.458739,-0.5424 0.787649,-1.1473 0.528569,-0.972 0.742084,-2.1013 0.568699,-3.0074 -0.09525,-0.4978 -0.294151,-0.7376 -0.712976,-0.8593 -0.329531,-0.096 -0.894947,-0.055 -1.359477,0.097 -0.486499,0.1601 -0.917991,0.398 -2.608023,1.4374 l -1.416093,0.8708 -8e-4,2.8009 c -8.02e-4,2.5636 0.0045,2.7989 0.06179,2.7769 0.03441,-0.013 0.437346,-0.2342 0.895408,-0.4911 l 0,0 z"
       id="path3993"
       inkscape:connector-curvature="0"
       sodipodi:nodetypes="scssssssssssscccssscsssssscscccc" />
    <path
       style="fill:#174eff;fill-opacity:1"
       d="m 12.529341,1011.6683 c -5.745952,-3.2891 -10.4194858,-6.0078 -10.3856312,-6.0416 0.033855,-0.034 1.251312,-0.759 2.7054609,-1.6114 l 2.6439073,-1.5499 0.493879,0.2818 c 0.271634,0.1549 1.862817,1.0689 3.535962,2.0312 1.673147,0.9622 3.075207,1.7494 3.11569,1.7494 0.04048,0 0.07361,-1.8445 0.07361,-4.099 l 0,-4.099 3.267713,-1.9114 c 1.797241,-1.0512 3.288507,-1.9114 3.313923,-1.9114 0.02541,0 0.05644,2.5953 0.06895,5.7674 l 0.02274,5.7673 10.93572,0.044 10.93572,0.044 -3.498414,1.9887 -3.498414,1.9888 -7.472273,0.044 -7.472271,0.044 3.595697,2.2087 c 3.098144,1.903 3.575101,2.2237 3.446855,2.3174 -0.376023,0.275 -5.159789,2.9418 -5.264025,2.9346 -0.06468,0 -4.818838,-2.6992 -10.564789,-5.9883 l 0,0 z"
       id="path3847"
       inkscape:connector-curvature="0" />
    <path
       style="fill:#174eff;fill-opacity:1"
       d="m 24.456689,1031.1337 0.02244,-11.1096 3.270369,-1.935 c 5.282221,-3.1253 8.820116,-5.1175 9.745411,-5.4877 1.001225,-0.4006 2.653372,-0.5307 3.454452,-0.272 0.631848,0.2041 1.350993,0.8696 1.695234,1.5689 0.387012,0.7861 0.475789,1.556 0.356846,3.0948 -0.199843,2.5854 -0.930269,4.3804 -2.761487,6.7861 -1.393757,1.831 -2.348818,2.5961 -7.467006,5.9818 l -2.224394,1.4714 -0.0074,3.641 -0.0074,3.6411 -1.480505,0.9207 c -1.843247,1.1464 -4.162089,2.5636 -4.422711,2.7031 l -0.196263,0.105 0.02244,-11.1096 z m 7.451709,-5.3039 c 2.607735,-1.4809 3.243395,-2.007 3.873613,-3.2063 0.432873,-0.8238 0.578267,-1.3187 0.644589,-2.1941 0.04371,-0.5769 0.02326,-0.81 -0.09919,-1.1306 -0.205832,-0.539 -0.463304,-0.6949 -1.147571,-0.6949 -0.779158,0 -1.336417,0.2397 -3.231894,1.3901 l -1.635185,0.9925 -0.02332,2.8469 c -0.01283,1.5659 0.0092,2.847 0.04884,2.847 0.03969,0 0.746244,-0.3828 1.570117,-0.8506 l 0,0 z"
       id="path3849"
       inkscape:connector-curvature="0" />
    <g
       id="g3961"
       transform="matrix(1.3165141,0,0,1.3165141,-6.255181,-333.04674)">
      <text
         sodipodi:linespacing="125%"
         id="text3000-2"
         y="1042.3622"
         x="76.36216"
         style="font-size:40px;font-style:normal;font-weight:normal;line-height:125%;letter-spacing:0px;word-spacing:0px;fill:#1a4dff;fill-opacity:1;stroke:none;font-family:Sans"
         xml:space="preserve"><tspan
           style="font-style:normal;font-variant:normal;font-weight:bold;font-stretch:normal;fill:#1a4dff;fill-opacity:1;font-family:Levenim MT;-inkscape-font-specification:Levenim MT Bold"
           y="1042.3622"
           x="76.36216"
           id="tspan3002-1"
           sodipodi:role="line">he</tspan></text>
      <text
         transform="scale(1.0892219,0.91808658)"
         sodipodi:linespacing="125%"
         id="text3000-7-3"
         y="1135.3309"
         x="299.77124"
         style="font-size:47.68841171px;font-style:normal;font-weight:normal;line-height:125%;letter-spacing:0px;word-spacing:0px;fill:#1a4dff;fill-opacity:1;stroke:none;font-family:Sans"
         xml:space="preserve"><tspan
           style="font-style:normal;font-variant:normal;font-weight:bold;font-stretch:normal;fill:#1a4dff;fill-opacity:1;font-family:Levenim MT;-inkscape-font-specification:Levenim MT Bold"
           y="1135.3309"
           x="299.77124"
           id="tspan3002-9-2"
           sodipodi:role="line">P</tspan></text>
      <text
         sodipodi:linespacing="125%"
         id="text3000-2-5"
         y="1042.3622"
         x="49.097366"
         style="font-size:44.91228104px;font-style:normal;font-weight:normal;line-height:125%;letter-spacing:0px;word-spacing:0px;fill:#1a4dff;fill-opacity:1;stroke:none;font-family:Sans"
         xml:space="preserve"><tspan
           style="font-style:normal;font-variant:normal;font-weight:bold;font-stretch:normal;fill:#1a4dff;fill-opacity:1;font-family:Segoe UI;-inkscape-font-specification:Segoe UI Bold"
           y="1042.3622"
           x="49.097366"
           id="tspan3002-1-2"
           sodipodi:role="line">T</tspan></text>
      <text
         transform="scale(0.99095428,1.0091283)"
         sodipodi:linespacing="125%"
         id="text3000-7-30"
         y="1036.4072"
         x="139.98358"
         style="font-size:48.33243179px;font-style:normal;font-weight:normal;line-height:125%;letter-spacing:0px;word-spacing:0px;fill:#1a4dff;fill-opacity:1;stroke:none;font-family:Sans"
         xml:space="preserve"><tspan
           style="font-style:normal;font-variant:normal;font-weight:bold;font-stretch:normal;fill:#1a4dff;fill-opacity:1;font-family:Levenim MT;-inkscape-font-specification:Levenim MT Bold"
           y="1036.4072"
           x="139.98358"
           id="tspan3002-9-0"
           sodipodi:role="line">K</tspan></text>
      <rect
         style="fill:#ffffff;fill-opacity:1"
         y="1042.3521"
         x="141.60028"
         height="5.4491158"
         width="27.526543"
         id="rect3155" />
      <text
         sodipodi:linespacing="125%"
         id="text3157"
         y="1042.3523"
         x="163.77925"
         style="font-size:40px;font-style:normal;font-weight:normal;line-height:125%;letter-spacing:0px;word-spacing:0px;fill:#1a4dff;fill-opacity:1;stroke:none;font-family:Sans"
         xml:space="preserve"><tspan
           style="font-style:normal;font-variant:normal;font-weight:bold;font-stretch:normal;fill:#1a4dff;fill-opacity:1;font-family:Levenim MT;-inkscape-font-specification:Levenim MT Bold"
           y="1042.3523"
           x="163.77925"
           id="tspan3159"
           sodipodi:role="line">autham</tspan></text>
      <text
         sodipodi:linespacing="125%"
         id="text3161"
         y="1042.3336"
         x="354.92575"
         style="font-size:40px;font-style:normal;font-weight:normal;line-height:125%;letter-spacing:0px;word-spacing:0px;fill:#1a4dff;fill-opacity:1;stroke:none;font-family:Sans"
         xml:space="preserve"><tspan
           style="font-style:normal;font-variant:normal;font-weight:bold;font-stretch:normal;fill:#1a4dff;fill-opacity:1;font-family:Levenim MT;-inkscape-font-specification:Levenim MT Bold"
           y="1042.3336"
           x="354.92575"
           id="tspan3163"
           sodipodi:role="line">roject</tspan></text>
    </g>
  </g>
</svg>
