/* XPM */
static char *vsy[]={
"16 16 43 1",
". c None",
"# c #000000",
"N c #060606",
"M c #0e0e0e",
"c c #121212",
"O c #151515",
"K c #191919",
"B c #1f1f1f",
"t c #222222",
"H c #272727",
"m c #282828",
"E c #2e2e2e",
"b c #303030",
"a c #343434",
"I c #3c3c3c",
"J c #414141",
"s c #474747",
"g c #4b4b4b",
"d c #4d4d4d",
"F c #505050",
"u c #565656",
"L c #5b5b5b",
"v c #5d5d5d",
"G c #5f5f5f",
"A c #646464",
"h c #696969",
"l c #6d6d6d",
"n c #727272",
"e c #767676",
"f c #7a7a7a",
"o c #808080",
"i c #878787",
"p c #8a8a8a",
"k c #b6b6b6",
"D c #bfbfbf",
"w c #c2c2c2",
"y c #c5c5c5",
"j c #cacaca",
"r c #e1e1e1",
"x c #e4e4e4",
"q c #e5e5e5",
"z c #f7f7f7",
"C c #ff0000",
"......#ab#......",
".....cdefgc.....",
"...#bhfijklm#...",
"..cdnneopqrfsc..",
".tuvepwxyzzoAvB.",
".mCAfrDpppehnCE.",
".CCFooelhGlouCC.",
"CCCCCCCCCCCCCCCC",
"CCCCCCCCCCCCCCCC",
".CCHHHtFuIJJJCC.",
".BCHHHHdFgssgCH.",
".#KmEEavGuuLFm#.",
"..#MEJsAlGhFK#..",
"....NEFfonIN....",
".....#Keet#.....",
"......#Oc#......"};
