/* XPM */
static char *vsz[]={
"16 16 38 1",
". c None",
"# c #000000",
"J c #060606",
"I c #0e0e0e",
"b c #121212",
"G c #191919",
"t c #1f1f1f",
"l c #222222",
"D c #272727",
"d c #282828",
"x c #2e2e2e",
"c c #303030",
"H c #343434",
"A c #3c3c3c",
"F c #414141",
"k c #474747",
"C c #4b4b4b",
"e c #4d4d4d",
"y c #505050",
"m c #565656",
"E c #5b5b5b",
"n c #5d5d5d",
"w c #5f5f5f",
"s c #646464",
"v c #696969",
"z c #6d6d6d",
"f c #727272",
"g c #767676",
"j c #7a7a7a",
"B c #7d7d7d",
"r c #808080",
"o c #8a8a8a",
"u c #bfbfbf",
"p c #c2c2c2",
"i c #e1e1e1",
"h c #e5e5e5",
"q c #f7f7f7",
"a c #ff0000",
"......#aa#......",
".....baaaab.....",
"...#caaaaaad#...",
"..beffgaahijkb..",
".lmngopaaqqrsnt.",
".dnsjiuaaogvfwx.",
".lcyrrgaawzrmed.",
".lctAfraaBgCAex.",
".txDtDyaaEAFFCd.",
".tcDDDlaaAFFFed.",
".tcDDDDaaCkkCyD.",
".#GdxxHaammEyd#.",
"..#IxFkaawvyG#..",
"....JaaaaaaJ....",
".....#aaaa#.....",
"......#aa#......"};
