# 
# Generated by Sweet Home 3D - Tue Feb 09 14:43:05 CET 2021
# http://www.sweethome3d.com/
# 
mtllib desk.mtl
g Desk_1
usemtl Wood
v 319.55093 72.0 541.008
v 319.60754 72.0 482.82086
v 319.60754 70.0 482.82086
v 319.55093 70.0 541.008
v 479.55 72.0 462.2261
v 479.53177 72.0 480.96436
v 479.53177 70.0 480.96436
v 479.55 70.0 462.2261
v 479.47324 70.0 541.12396
v 479.47324 72.0 541.12396
v 479.4723 71.66666 542.11017
v 479.4723 70.33333 542.11017
v 319.55 70.33333 541.9942
v 319.55 71.66666 541.9942
v 477.26538 72.0 462.22446
v 477.26538 70.0 462.22446
v 479.52985 72.0 482.9368
v 477.24524 72.0 482.93512
v 477.18863 72.0 541.1223
v 479.53177 25.999998 480.96436
v 479.55 25.999998 462.2261
v 477.26538 25.999998 462.22446
v 477.24716 25.999998 480.96268
v 477.24716 70.0 480.96268
v 479.47324 0 541.12396
v 479.47324 25.999998 541.12396
v 477.18863 25.999998 541.1223
v 477.18863 0 541.1223
v 479.53177 0 480.96436
v 477.24716 0 480.96268
v 477.26538 0 462.22446
v 479.55 0 462.2261
v 321.89404 70.0 480.85007
v 321.89404 25.999998 480.85007
v 321.9123 25.999998 462.11182
v 321.9123 70.0 462.11182
v 321.89404 0 480.85007
v 319.60947 0 480.8484
v 319.6277 0 462.11017
v 321.9123 0 462.11182
v 321.89212 72.0 482.8225
v 321.83554 72.0 541.00964
v 319.6277 72.0 462.11017
v 321.9123 72.0 462.11182
v 319.6277 70.0 462.11017
v 319.6277 25.999998 462.11017
v 319.60947 25.999998 480.8484
v 319.60947 70.0 480.8484
v 321.83554 0 541.00964
v 321.83554 25.999998 541.00964
v 319.55093 25.999998 541.008
v 319.55093 0 541.008
v 321.89212 70.0 482.8225
v 477.24524 70.0 482.93512
v 477.18863 70.0 541.1223
v 321.83554 70.0 541.00964
v 477.24524 25.999998 482.93512
v 321.89212 25.999998 482.8225
v 479.52985 70.0 482.9368
v 479.52985 25.999998 482.9368
v 477.24716 72.0 480.96268
v 319.60947 72.0 480.8484
v 321.89404 72.0 480.85007
v 479.52985 0 482.9368
v 477.24524 0 482.93512
v 321.89212 0 482.8225
v 319.60754 0 482.82086
v 319.60754 25.999998 482.82086
vt 0.2445 0.2175 0
vt 0.2445 0.6305 0
vt 0.2585 0.6305 0
vt 0.2585 0.2175 0
vt 0.2445 0.7775 0
vt 0.2445 0.6445 0
vt 0.2585 0.6445 0
vt 0.2585 0.7775 0
vt 0.246833 0.2105 0
vt 0.256167 0.2105 0
vt 0.2445 0.9735 0
vt 0.2445 0.9875 0
vt 0.2585 0.9875 0
vt 0.2585 0.9735 0
vt 0.7765 0.9875 0
vt 0.3635 0.9875 0
vt 0.3635 0.9735 0
vt 0.7765 0.9735 0
vt 0.5665 0.6445 0
vt 0.5665 0.7775 0
vt 0.5665 0.9875 0
vt 0.5665 0.9735 0
vt 0.7485 0.9875 0
vt 0.7485 0.9735 0
vt 0.3495 0.9875 0
vt 0.3495 0.9735 0
vt 0.2165 0.9735 0
vt 0.2165 0.9875 0
vt 0.3495 0.0215 0
vt 0.3495 0.0075 0
vt 0.2165 0.0075 0
vt 0.2165 0.0215 0
vt 0.3635 0.0215 0
vt 0.7765 0.0215 0
vt 0.2445 0.0075 0
vt 0.2445 0.0215 0
vt 0.2585 0.0215 0
vt 0.2585 0.0075 0
vt 0.5665 0.0215 0
vt 0.5665 0.0075 0
vt 0.7485 0.0215 0
vt 0.7485 0.0075 0
vt 0.5665 0.6305 0
vt 0.3635 0.0075 0
vt 0.5665 0.2175 0
vt 0.7765 0.0075 0
vt 0.7485 0.6445 0
vt 0.7485 0.7775 0
vt 0.7485 0.6305 0
vt 0.7485 0.2175 0
vn -0.9999997 -0.0 -0.000725
vn 0.9999997 0.0 0.0007253
vn 0.9999997 0.0 0.0007246
vn 0.9999997 0.0 0.0007246
vn -0.9999997 -0.0 -0.0007246
vn -0.9999997 -0.0 -0.0007246
vn 0.0009718 0.0 -0.9999996
vn 0.0 1.0 0.0
vn -0.9999997 0.0 -0.0007253
vn -0.000972 0.0 0.9999995
vn 0.0 -1.0 0.0
vn 0.0009718 0.0 -0.9999996
vn 0.0009718 0.0 -0.9999995
vn -0.0009721 0.0 0.9999995
vn 0.0009726 0.0 -0.9999995
vn 0.9999997 0.0 0.0007246
vn 0.0009726 0.0 -0.9999995
vn -0.9999997 0.0 -0.0007246
vn -0.0009726 0.0 0.9999995
vn -0.9999997 0.0 -0.000725
vn 0.9999997 0.0 0.000725
vn 0.9999997 0.0 0.000725
vn 0.9999997 0.0 0.0007253
vn -0.9999997 0.0 -0.0007253
vn -0.99999976 0.0 -0.0007246
vn -0.000972 0.0 0.9999996
vn 0.0009718 0.0 -0.9999995
vn 0.99999976 0.0 0.0007246
vn 0.0009718 0.0 -0.9999995
vn -0.0009721 0.0 0.9999995
f 1/1/1 2/2/1 3/3/1
f 1/1/1 3/3/1 4/4/1
f 5/5/2 6/6/2 7/7/2
f 5/5/2 7/7/2 8/8/2
f 9/4/3 10/1/3 11/9/3
f 9/4/4 11/9/4 12/10/4
f 13/10/5 14/9/5 1/1/5
f 13/10/6 1/1/6 4/4/6
f 15/11/7 5/12/7 8/13/7
f 15/11/7 8/13/7 16/14/7
f 10/15/8 17/16/8 18/17/8
f 10/15/8 18/17/8 19/18/8
f 7/7/2 20/19/2 21/20/2
f 7/7/2 21/20/2 8/8/2
f 22/20/9 23/19/9 24/7/9
f 22/20/9 24/7/9 16/8/9
f 8/13/7 21/21/7 22/22/7
f 8/13/7 22/22/7 16/14/7
f 25/23/10 26/21/10 27/22/10
f 25/23/10 27/22/10 28/24/10
f 29/25/11 30/26/11 31/27/11
f 29/25/11 31/27/11 32/28/11
f 33/7/2 34/19/2 35/20/2
f 33/7/2 35/20/2 36/8/2
f 37/29/11 38/30/11 39/31/11
f 37/29/11 39/31/11 40/32/11
f 19/18/8 18/17/8 41/33/8
f 19/18/8 41/33/8 42/34/8
f 43/35/12 44/36/12 36/37/12
f 43/35/12 36/37/12 45/38/12
f 46/20/9 47/19/9 48/7/9
f 46/20/9 48/7/9 45/8/9
f 36/37/13 35/39/13 46/40/13
f 36/37/13 46/40/13 45/38/13
f 49/41/14 50/39/14 51/40/14
f 49/41/14 51/40/14 52/42/14
f 53/33/11 54/17/11 55/18/11
f 53/33/11 55/18/11 56/34/11
f 44/36/15 15/11/15 16/14/15
f 44/36/15 16/14/15 36/37/15
f 34/29/11 23/26/11 57/17/11
f 34/29/11 57/17/11 58/33/11
f 59/3/16 60/43/16 20/19/16
f 59/3/16 20/19/16 7/7/16
f 6/25/8 5/28/8 15/27/8
f 6/25/8 15/27/8 61/26/8
f 6/6/16 17/2/16 59/3/16
f 6/6/16 59/3/16 7/7/16
f 62/6/9 43/5/9 45/8/9
f 62/6/9 45/8/9 48/7/9
f 63/29/8 44/32/8 43/31/8
f 63/29/8 43/31/8 62/30/8
f 64/16/11 65/17/11 30/26/11
f 64/16/11 30/26/11 29/25/11
f 24/14/17 23/22/17 34/39/17
f 24/14/17 34/39/17 33/37/17
f 66/33/11 67/44/11 38/30/11
f 66/33/11 38/30/11 37/29/11
f 61/26/8 15/27/8 44/32/8
f 61/26/8 44/32/8 63/29/8
f 47/19/18 68/43/18 3/3/18
f 47/19/18 3/3/18 48/7/18
f 36/32/11 16/27/11 24/26/11
f 36/32/11 24/26/11 33/29/11
f 41/33/8 63/29/8 62/30/8
f 41/33/8 62/30/8 2/44/8
f 2/2/18 62/6/18 48/7/18
f 2/2/18 48/7/18 3/3/18
f 17/16/8 6/25/8 61/26/8
f 17/16/8 61/26/8 18/17/8
f 18/17/8 61/26/8 63/29/8
f 18/17/8 63/29/8 41/33/8
f 58/39/19 57/22/19 54/14/19
f 58/39/19 54/14/19 53/37/19
f 57/43/20 27/45/20 55/4/20
f 57/43/20 55/4/20 54/3/20
f 9/4/21 26/45/21 60/43/21
f 9/4/21 60/43/21 59/3/21
f 17/2/22 10/1/22 9/4/22
f 17/2/22 9/4/22 59/3/22
f 25/15/11 28/18/11 65/17/11
f 25/15/11 65/17/11 64/16/11
f 56/4/21 50/45/21 58/43/21
f 56/4/21 58/43/21 53/3/21
f 49/34/11 52/46/11 67/44/11
f 49/34/11 67/44/11 66/33/11
f 68/43/20 51/45/20 4/4/20
f 68/43/20 4/4/20 3/3/20
f 20/19/23 29/47/23 32/48/23
f 20/19/23 32/48/23 21/20/23
f 31/48/24 30/47/24 23/19/24
f 31/48/24 23/19/24 22/20/24
f 65/49/1 28/50/1 27/45/1
f 65/49/1 27/45/1 57/43/1
f 30/47/25 65/49/25 57/43/25
f 30/47/25 57/43/25 23/19/25
f 26/45/22 25/50/22 64/49/22
f 26/45/22 64/49/22 60/43/22
f 26/21/26 9/13/26 55/14/26
f 26/21/26 55/14/26 27/22/26
f 21/21/27 32/23/27 31/24/27
f 21/21/27 31/24/27 22/22/27
f 60/43/28 64/49/28 29/47/28
f 60/43/28 29/47/28 20/19/28
f 34/19/23 37/47/23 40/48/23
f 34/19/23 40/48/23 35/20/23
f 39/48/24 38/47/24 47/19/24
f 39/48/24 47/19/24 46/20/24
f 35/39/29 40/41/29 39/42/29
f 35/39/29 39/42/29 46/40/29
f 50/39/30 56/37/30 4/38/30
f 50/39/30 4/38/30 51/40/30
f 58/43/28 66/49/28 37/47/28
f 58/43/28 37/47/28 34/19/28
f 38/47/25 67/49/25 68/43/25
f 38/47/25 68/43/25 47/19/25
f 50/45/22 49/50/22 66/49/22
f 50/45/22 66/49/22 58/43/22
f 67/49/1 52/50/1 51/45/1
f 67/49/1 51/45/1 68/43/1
f 42/34/8 41/33/8 2/44/8
f 42/34/8 2/44/8 1/46/8
g Desk_61_2
usemtl Wood
v 321.83456 71.66666 541.9959
v 321.83456 70.33333 541.9959
v 477.18768 70.33333 542.1085
v 477.18768 71.66666 542.1085
vt 0.7835 0.0075 0
vt 0.7835 0.0215 0
vt 0.256167 0.0215 0
vt 0.246833 0.0215 0
vt 0.246833 0.0075 0
vt 0.256167 0.0075 0
vt 0.7835 0.9875 0
vt 0.7835 0.9735 0
vt 0.256167 0.9875 0
vt 0.246834 0.9875 0
vt 0.246834 0.9735 0
vt 0.256167 0.9735 0
vn -0.0007848 0.59004366 0.807371
vn -0.000785 0.5900436 0.807371
vn -0.0003037 0.94998115 0.31230718
vn -0.0003036 0.94998115 0.31230718
vn -0.000785 -0.59004915 0.8073669
vn -0.0007848 -0.59004915 0.80736697
vn -0.0003037 -0.9499853 0.31229424
vn -0.0003036 -0.9499853 0.31229424
vn -0.0007848 -0.59004915 0.80736697
vn -0.0006949 -0.69944805 0.7146832
vn -0.000785 0.5900436 0.807371
vn -0.0007848 0.59004354 0.807371
vn -0.0003036 0.9499811 0.31230712
vn -0.0003037 0.9499811 0.31230718
vn -0.0003036 -0.9499853 0.31229424
vn -0.0003037 -0.9499854 0.31229427
f 14/51/31 69/52/32 42/34/33
f 14/51/31 42/34/33 1/46/34
f 70/53/35 69/54/32 14/55/31
f 70/53/35 14/55/31 13/56/36
f 55/18/37 9/15/38 12/57/39
f 55/18/37 12/57/39 71/58/40
f 72/58/41 11/57/42 10/15/43
f 72/58/41 10/15/43 19/18/44
f 12/59/39 11/60/42 72/61/41
f 12/59/39 72/61/41 71/62/40
f 69/52/32 72/58/41 19/18/44
f 69/52/32 19/18/44 42/34/33
f 71/62/40 72/61/41 69/54/32
f 71/62/40 69/54/32 70/53/35
f 4/46/45 56/34/46 70/52/35
f 4/46/45 70/52/35 13/51/36
f 56/34/46 55/18/37 71/58/40
f 56/34/46 71/58/40 70/52/35
