# 
# Generated by Sweet Home 3D - Tue Feb 09 15:06:33 CET 2021
# http://www.sweethome3d.com/
# 
mtllib shelf_platform.mtl
g Box19_1_1
usemtl Box19_1
v 309.6 130.0 284.6602
v 233.4 130.0 284.6602
v 233.4 130.0 254.46017
v 309.6 130.0 254.46017
v 309.6 132.0 284.6602
v 309.6 132.0 254.46017
v 233.4 132.0 254.46017
v 233.4 132.0 284.6602
vt 1.0 0.0 0
vt 1.0 1.0 0
vt 0.0 1.0 0
vt 0.0 0.0 0
vn 0.0 -1.0 0.0
vn 0.0 1.0 0.0
vn 1.0 0.0 0.0
vn 0.0 0.0 -1.0
vn -1.0 0.0 0.0
vn 0.0 0.0 1.0
f 1/1/1 2/2/1 3/3/1
f 1/1/1 3/3/1 4/4/1
f 5/4/2 6/1/2 7/2/2
f 5/4/2 7/2/2 8/3/2
f 1/4/3 4/1/3 6/2/3
f 1/4/3 6/2/3 5/3/3
f 4/4/4 3/1/4 7/2/4
f 4/4/4 7/2/4 6/3/4
f 3/4/5 2/1/5 8/2/5
f 3/4/5 8/2/5 7/3/5
f 2/4/6 1/1/6 5/2/6
f 2/4/6 5/2/6 8/3/6
