/* XPM */
static char *determ[]={
"16 16 20 1",
"# c None",
". c None",
"a c #000000",
"r c #000080",
"p c #0000c0",
"q c #0000ff",
"n c #008000",
"l c #00c000",
"m c #00ff00",
"j c #808000",
"h c #c0c000",
"o c #c0c0ff",
"k c #c0ffc0",
"d c #ff0000",
"e c #ff8000",
"f c #ffa858",
"c c #ffc0c0",
"b c #ffdca8",
"i c #ffff00",
"g c #ffffc0",
".........#######",
"aaaa.....#######",
"abba.....#######",
"abba....########",
"abbaaa..######..",
"accdda..######..",
"accddaaa####....",
"abbefeea........",
"aeeefeeaaa......",
"agghihhjja......",
"ahhhihhjjaaa....",
"akklmllnnnna....",
"alllmllnnnnaaaa.",
"aoopqpprprrpppa.",
"aoopqpprprrpppa.",
"aaaaaaaaaaaaaaa."};
