/* XPM */
static char *phantom_on[]={
"16 16 8 1",
". c None",
"d c #000000",
"c c #008000",
"a c #00c000",
"# c #00ff00",
"b c #010101",
"e c #202020",
"f c #404040",
"................",
"..........#a....",
".........###a...",
"........bc##a...",
"....ddddddccb...",
"...dddddddbbd...",
"...ddddddd..db..",
"...ddddddd..bd..",
"...ddddddd...db.",
"....ddddd....bb.",
"...ddddedd......",
"dddddddfddddd...",
".ddddddddddddd..",
"................",
"................",
"................"};
