/* XPM */
static char * superkaramba_16_xpm[] = {
"16 16 128 2",
"  	c None",
". 	c #0CB8FF",
"+ 	c #48D1FF",
"@ 	c #62DBFF",
"# 	c #67DDFF",
"$ 	c #58DAFF",
"% 	c #21C9FF",
"& 	c #0087FF",
"* 	c #149AFF",
"= 	c #7CC9FF",
"- 	c #8ED1FF",
"; 	c #8FD2FF",
"> 	c #90D4FF",
", 	c #91D5FF",
"' 	c #8DD5FF",
") 	c #37BAFF",
"! 	c #009EFF",
"~ 	c #005FFF",
"{ 	c #0066FF",
"] 	c #5A9EFF",
"^ 	c #83B7FF",
"/ 	c #84B9FF",
"( 	c #84BBFF",
"_ 	c #85BCFF",
": 	c #87BFFF",
"< 	c #8AC2FF",
"[ 	c #8BC3FF",
"} 	c #208FFF",
"| 	c #0D82FF",
"1 	c #003BFF",
"2 	c #003EFF",
"3 	c #6088FF",
"4 	c #789CFF",
"5 	c #799EFF",
"6 	c #7AA0FF",
"7 	c #7FA5FF",
"8 	c #89ADFF",
"9 	c #91B4FF",
"0 	c #96B9FF",
"a 	c #568FFF",
"b 	c #2C76FF",
"c 	c #000FFF",
"d 	c #0013FF",
"e 	c #0016FF",
"f 	c #2F42FF",
"g 	c #6E7EFF",
"h 	c #7182FF",
"i 	c #7788FF",
"j 	c #8495FF",
"k 	c #8FA0FF",
"l 	c #96A6FD",
"m 	c #95A7FA",
"n 	c #4E6EF9",
"o 	c #4367FC",
"p 	c #234EFE",
"q 	c #0017FF",
"r 	c #0014FF",
"s 	c #0213FF",
"t 	c #101EFF",
"u 	c #4D57FF",
"v 	c #7E84FF",
"w 	c #8D92FF",
"x 	c #9A9EFF",
"y 	c #A0A3FD",
"z 	c #9397F7",
"A 	c #6B70F2",
"B 	c #5E65F0",
"C 	c #444CF6",
"D 	c #2A35FC",
"E 	c #0039EC",
"F 	c #023EFF",
"G 	c #1A4DFF",
"H 	c #3962FF",
"I 	c #5275FF",
"J 	c #6884FF",
"K 	c #869BFF",
"L 	c #96A8FF",
"M 	c #93A4FD",
"N 	c #798CF7",
"O 	c #7B8EF0",
"P 	c #8293EE",
"Q 	c #455AF4",
"R 	c #253CFB",
"S 	c #004ED1",
"T 	c #106DFD",
"U 	c #3682FF",
"V 	c #5A97FF",
"W 	c #7BAAFF",
"X 	c #95B9FF",
"Y 	c #A7C3FF",
"Z 	c #ADC7FF",
"` 	c #A6C2FF",
" .	c #95B5FB",
"..	c #7CA2F8",
"+.	c #618EF7",
"@.	c #4074FA",
"#.	c #053FE6",
"$.	c #1081E2",
"%.	c #46A9FE",
"&.	c #6EBAFF",
"*.	c #96CCFF",
"=.	c #BBDDFF",
"-.	c #D7EAFF",
";.	c #D4E7FF",
">.	c #BBDAFF",
",.	c #A2CCFF",
"'.	c #87BDFE",
").	c #5FA6FE",
"!.	c #1675F4",
"~.	c #0043B3",
"{.	c #1998D5",
"].	c #5BC8FA",
"^.	c #97DDFF",
"/.	c #BFE9FF",
"(.	c #E0F5FF",
"_.	c #DCF2FF",
":.	c #B9E5FF",
"<.	c #96D7FF",
"[.	c #6BC5FE",
"}.	c #299EED",
"|.	c #045DA9",
"1.	c #24A3C8",
"2.	c #53C4E7",
"3.	c #72D4F3",
"4.	c #77D6F5",
"5.	c #5FCEF0",
"6.	c #3CB5DD",
"7.	c #0F86B4",
"                                ",
"                                ",
"          . + @ # $ %           ",
"      & * = - ; > , ' ) !       ",
"    ~ { ] ^ / ( _ : < [ } |     ",
"    1 2 3 4 5 6 7 8 9 0 a b     ",
"  c d e f g h i j k l m n o p   ",
"  q r s t u v w x y z A B C D   ",
"  E F G H I J K L M N O P Q R   ",
"  S T U V W X Y Z `  ...+.@.#.  ",
"    $.%.&.*.=.-.;.>.,.'.).!.~.  ",
"      {.].^./.(._.:.<.[.}.|.    ",
"          1.2.3.4.5.6.7.        ",
"                                ",
"                                ",
"                                "};
