/* XPM */
static char *vry[]={
"16 16 56 1",
". c None",
"p c #000000",
"Q c #090606",
"U c #232323",
"X c #333333",
"d c #421200",
"I c #4dbbec",
"z c #526bba",
"L c #535353",
"H c #53b8e9",
"f c #551c00",
"y c #5970ba",
"k c #5d5023",
"E c #616161",
"R c #686363",
"0 c #6b6969",
"q c #6b6b5d",
"F c #6d6969",
"t c #727366",
"O c #72d4f9",
"u c #736c55",
"D c #776e58",
"T c #777575",
"N c #78d3f7",
"g c #7d4000",
"1 c #807f7f",
"K c #827d7d",
"n c #886b2e",
"v c #8a8a8c",
"C c #918f94",
"j c #af6000",
"M c #b1acaa",
"Y c #b1b0b3",
"s c #b4b5b6",
"r c #b7b8b7",
"P c #b8b5b5",
"Z c #c0bfbf",
"c c #c75b00",
"# c #c95d00",
"a c #cc6600",
"m c #d0d0ab",
"J c #d0dcde",
"G c #d4dcdd",
"l c #d8d5ad",
"b c #dc6800",
"w c #dddddd",
"A c #e0e0dd",
"B c #e0e0e0",
"x c #e6e5e0",
"V c #e9e7e7",
"W c #efeded",
"S c #f3f8f8",
"h c #fad326",
"i c #fbdc29",
"o c #ff0000",
"e c #ffac00",
".......#a.......",
".......bc.......",
"......deef......",
"......ghij......",
"......klmn......",
"..o..pqrstp..o..",
".oouvwxyzABCDoo.",
"oooooooooooooooo",
"oooooooooooooooo",
".ooEpFGHIJKpLoo.",
"..op.pMNOPQ.po..",
"......RSST......",
"......UVWX......",
"......pYZp......",
".......01.......",
".......pp......."};
