/* XPM */
static char *vszoom[]={
"16 16 41 1",
". c None",
"# c #000000",
"c c #0080ff",
"G c #00ff00",
"K c #060606",
"I c #0e0e0e",
"d c #121212",
"M c #151515",
"L c #191919",
"r c #1f1f1f",
"p c #222222",
"B c #272727",
"i c #282828",
"t c #2e2e2e",
"b c #303030",
"a c #343434",
"y c #3c3c3c",
"D c #414141",
"o c #474747",
"A c #4b4b4b",
"E c #4d4d4d",
"u c #505050",
"x c #565656",
"C c #5b5b5b",
"q c #5d5d5d",
"w c #5f5f5f",
"s c #646464",
"e c #696969",
"v c #6d6d6d",
"j c #727272",
"k c #767676",
"f c #7a7a7a",
"z c #7d7d7d",
"J c #808000",
"l c #808080",
"g c #878787",
"m c #8a8a8a",
"h c #a8dcff",
"H c #c00000",
"n c #c0ffff",
"F c #ffff00",
"......#ab#......",
".....cccccd.....",
"...#cefghhci#...",
"..dcjjklmnncod..",
".pcqkmhhnnnlcqr.",
".cqsfnhmmmkejct.",
".cbullkvewvlxci.",
".cbryjlfkzkAyct.",
".ctBrBuffCyDDci.",
".cbBBBpuxyDDDci.",
".rcBBBBEuAooFuB.",
".#GcttaqwxxFHi#.",
"..GIcDosvwFHJH..",
"GGGGGcccccyKHJH.",
"..G..#Lkkp#..HJH",
"..G...#Md#....HJ"};
